<?xml version="1.0" encoding="utf-8"?>
<!-- Generator: Adobe Illustrator 25.0.0, SVG Export Plug-In . SVG Version: 6.00 Build 0)  -->
<svg version="1.1" id="Layer_1" xmlns="http://www.w3.org/2000/svg" xmlns:xlink="http://www.w3.org/1999/xlink" x="0px" y="0px"
	 viewBox="0 0 447 144.5" style="enable-background:new 0 0 447 144.5;" xml:space="preserve">
<style type="text/css">
	.st0{fill:#FFFFFF;}
	.st1{font-family:'Roboto-Regular';}
	.st2{font-size:59px;}
	.st3{fill:#DDA52A;}
	.st4{font-family:'SegoeUI';}
	.st5{font-size:20.9205px;}
</style>
<g>
	<text transform="matrix(1 0 0 1 119.349 81.7681)" class="st0 st1 st2">DUOCODO</text>
	<g id="Groupe_7" transform="translate(-71 -72.5)">
		<path id="Icon_ionic-md-bulb" class="st3" d="M116.2,190c0,3.2,2.6,5.8,5.8,5.8h25.6c3.2,0,5.8-2.6,5.8-5.8v-5.2h-37.2V190z
			 M134.8,84.3c-23.1,0-41.8,17.4-41.8,38.9c0,13.3,7,25,17.8,32.1v12.6c0.1,3.2,2.8,5.7,6,5.6h36c3.2,0.1,5.9-2.4,6-5.6v-12.6
			c10.9-7.1,17.9-18.8,17.9-32.1C176.6,101.7,157.9,84.3,134.8,84.3z"/>
		<g id="Icon_ionic-ios-code-working" transform="translate(98.809 322.618)">
			<path id="Tracé_1" d="M63.6-197.1L47-213c-0.2-0.2-0.4-0.2-0.6-0.2c-0.2,0-0.4,0.1-0.6,0.2l-2,1.9c-0.3,0.3-0.4,0.9-0.1,1.2
				c0,0,0,0,0.1,0.1l13.9,13.3l-13.9,13.3c-0.3,0.3-0.4,0.9-0.1,1.2c0,0,0,0,0.1,0.1l2,1.9c0.2,0.2,0.4,0.2,0.6,0.2
				c0.2,0,0.4-0.1,0.6-0.2l16.6-15.9c0.2-0.2,0.3-0.4,0.3-0.6C63.9-196.7,63.8-197,63.6-197.1z"/>
			<path id="Tracé_2" d="M14.2-196.5l14-13.3c0.3-0.3,0.4-0.9,0.1-1.2c0,0,0,0-0.1-0.1l-2-1.9c-0.2-0.2-0.4-0.2-0.6-0.2
				c-0.2,0-0.4,0.1-0.6,0.2L8.3-197.1c-0.3,0.3-0.4,0.9-0.1,1.2c0,0,0,0,0.1,0.1L24.9-180c0.2,0.2,0.4,0.2,0.6,0.2
				c0.2,0,0.4-0.1,0.6-0.2l2-1.9c0.3-0.3,0.4-0.9,0.1-1.2c0,0,0,0-0.1-0.1L14.2-196.5z"/>
			<path id="Tracé_3" d="M39.2-196.5c0,1.8-1.4,3.2-3.2,3.2s-3.2-1.4-3.2-3.2c0-1.8,1.4-3.2,3.2-3.2S39.2-198.3,39.2-196.5
				L39.2-196.5z"/>
			<path id="Tracé_4" d="M29.8-196.5c0,1.8-1.4,3.2-3.2,3.2s-3.2-1.4-3.2-3.2c0-1.8,1.4-3.2,3.2-3.2S29.8-198.3,29.8-196.5
				L29.8-196.5z"/>
			<path id="Tracé_5" d="M48.5-196.5c0,1.8-1.4,3.2-3.2,3.2s-3.2-1.4-3.2-3.2c0-1.8,1.4-3.2,3.2-3.2S48.5-198.3,48.5-196.5
				L48.5-196.5z"/>
		</g>
	</g>
	<g transform="matrix(1, 0, 0, 1, 15.25, 20)">
		<text transform="matrix(1 0 0 1 104.0991 89.1501)" class="st3 st4 st5">&lt;Apprenons ensemble à coder&gt;</text>
	</g>
</g>
</svg>
