<?xml version="1.0" encoding="utf-8"?>
<!-- Generator: Adobe Illustrator 25.0.0, SVG Export Plug-In . SVG Version: 6.00 Build 0)  -->
<svg version="1.1" id="Layer_1" xmlns="http://www.w3.org/2000/svg" xmlns:xlink="http://www.w3.org/1999/xlink" x="0px" y="0px"
	 viewBox="0 0 595.3 841.9" style="enable-background:new 0 0 595.3 841.9;" xml:space="preserve">
<style type="text/css">
	.st0{fill:#16120D;}
	.st1{fill:#FCCE77;}
	.st2{fill:#FBCD77;}
	.st3{fill:#EBB888;}
	.st4{fill:#E9B687;}
	.st5{fill:#F7F6F6;}
	.st6{fill:#E3E2E2;}
	.st7{fill:#DAAA80;}
	.st8{fill:#E3C270;}
	.st9{fill:#241E0F;}
	.st10{fill:#211B0D;}
	.st11{fill:#302815;}
	.st12{fill:#281F16;}
</style>
<g>
	<path class="st0" d="M197.2,572.3c-5.6,0.8-4.2-3.4-3.9-6c0.4-3.6-0.5-4.5-4.1-4.4c-11.4,0.5-19.3-4.8-24.1-15.2
		c-9.3-20-13.3-41.2-13.8-63.1c-0.8-35.6,8.4-68.7,26.1-99.5c8.9-15.6,21.5-26.9,38.2-33.6c3.9-1.6,7.6-3.7,11.5-5.2
		c4.1-1.5,8.3-4.9,12.8-0.7c0.2,0.2,0.8,0.4,1,0.3c11.3-5,25.3-5.5,32.1-18.4c0.5-1,0.9-2.1,1.5-3.1c1.8-2.7,1.1-4.7-1.2-7
		c-3.6-3.7-6-9-10.2-11.6c-4.3-2.6-9.6,1.3-14.8,1.1c-8.5-0.4-17-0.5-25.3-2.1c-23.5-4.7-34-21.5-27.9-44.7
		c5.7-22,19.3-38.5,37.2-51.8c3.3-2.4,5.7-4,5-9.3c-1.5-11.9,3.2-21.8,12.8-29.2c13.4-10.4,27.9-17,45.4-13.1
		c6.9,1.5,13.1,4.7,17.5,10.4c1.6,2.1,3,2.1,5.4,1.6c18.1-3.7,36.3-4.6,54.3,0.7c8,2.4,15.4,6,21.9,11.3c13,10.4,16.5,24.5,9.6,39.7
		c-5.7,12.5-14.7,22-26.7,28.5c-3,1.6-3.9,3.2-3.9,6.5c0.2,18.4-2.6,36.4-9.4,53.5c-4.6,11.5-12,20.6-23.6,25.5
		c-2.6,1.1-2.7,2.2-1.9,4.7c2.2,6.8,8,8.9,13.7,11.3c1.5,0.7,1.8-1,2.7-1.5c1.8-1.2,4.2-1.4,5.1,0.5c2.4,5.3,7.5,7,12,9.1
		c10.2,4.7,20.1,9.7,27,19c1.2,1.7,3.1,1.4,4.7,1.6c5.2,0.6,10.3,1.2,15.5,1.5c4.3,0.2,5.4,1.6,3.5,5.7c-3.1,6.4-5.4,13.1-8.7,19.4
		c-3.7,7.1-4.4,14.5-4,22.3c1.3,23.8,4.8,47.4,7.9,71c3,23.2,6.7,46.4,7.9,69.9c0.1,1.5,0.2,3.1-0.2,4.6c-1,3.7-2.9,4.2-5.5,1.2
		c-1.7-50.6-14.1-100.2-13.7-151.1c-6,11.9-11.3,23.9-17.9,35.3c-6,10.4-7.1,10.9-19,9.2c-1.8-0.2-3.7-1.5-5.3,0.5
		c-4.1,5-10.1,6-15.8,7.6c-2.5,0.7-5,1.1-6.3,3.5c-3.2,6.1-8.9,8.7-15,9.4c-8.4,1-16.7,4.3-22.8,8.3c-19,12.5-37.1,26.6-56.8,38.5
		c2.1,2,6.1,3,3.9,6.2c-2.3,3.3-4.9,0.5-6.5-1.4c-2-2.4-3.5-1.1-5.4-0.1c-10.7,5.7-21.1,11.9-32.2,16.8c-6.8,3-11.5,6.1-9.6,14.3
		C197.8,571.1,197.3,571.7,197.2,572.3z M364.3,462.6c-5.6,0.3-11.1,0.6-16.7,0.9c-1.1,0.1-2.6,0.2-2.8-1.2c-0.2-2,1.6-1.7,2.8-1.8
		c2.3-0.1,4.6,0,6.9-0.3c9.8-0.9,19.7-1.7,29.4-4.8c-1.2-1.6-2.4-1.2-3.5-1.2c-10.4-0.1-20.8-0.2-31.2-0.4c-1.8,0-4.6,1.1-5-1.3
		c-0.6-2.9,2.7-2.7,4.5-3.3c4.9-1.6,10.1-2.3,15.3-2.8c12.6-1.2,18-2.6,22.7-6.2c-17-1.6-33.5-0.7-50.7-0.6c1.7-2.5,3.5-3.1,5.3-3.7
		c8.1-3,16.3-5.6,25.1-6.1c2.8-0.2,7.6,0.4,7.4-3.6c-0.2-4.5-5.1-3.5-7.9-3.1c-20.3,2.5-40.7,5.1-54.4,23.1c-1.4,1.8-3.3,3.3-5,4.8
		c-0.6,0.6-1.4,1.5-2.2,0.1c4.4-8.2,10.2-15.3,17.6-20.9c2-1.5,3.2-1.9,1.7-5.1c-1.7-3.6-2.8-8.1,0.4-13.5c2.1,4.8,4,8.4,5.2,12.1
		c0.8,2.3,1.5,2.8,3.8,2c4.7-1.6,9.6-2.9,14.4-4.2c7.1-1.9,9.2-8.4,4.4-14.1c-0.8-1-2.4-1.9-1.6-3.3c0.9-1.8,2.8-1.2,4.1-0.5
		c3.1,1.7,4.1,0.1,5.3-2.5c2.8-6.1,5.9-12.1,8.8-18.1c2.3-4.7,5.9-6.6,11.2-6.3c4.7,0.3,9.4,0.1,14.6,0.1
		c-8.6-11.3-22.9-13.4-33-22.4c-2.7,15.6-9.7,28.4-23,36.2c-25,14.6-50.6,15.4-76.2,0.9c-2.9-1.6-5.1-3.8-7.5,0.6
		c-1.2,2-3.7,1.9-5.5,0.1c-2-2-1.1-3.9,0.7-5.5c0.8-0.7,1.9-1.2,2.9-1.8c-9.8-11.2-19.4-22.3-16.4-38.6c-29.1,2.1-67.8,47.9-72.5,86
		c0.3,0,0.7,0.1,1,0c2.5-0.8,5.8-4.4,7.2-0.2c1.4,4-3.6,3.3-5.9,4.4c-1.9,0.9-4.5,0.7-5,3.9c-1.4,8.9-3.7,17.7-3.4,26.8
		c-1.2,7.7-1.1,15.4,0,23.1c1.3,2-3.4,7.4,3.5,6.2c2.2-0.4,5-1.9,5.5,1.7c0.5,3-2.5,3.3-4.4,3.3c-3.9,0-3.9,2-3.2,4.8
		c0.4,1.5,0.5,3,0.9,4.5c2.7,12.4,5,24.9,11.7,35.9c6.2,10.1,14.7,12.8,25.8,8.4c4.6-1.8,9-4.3,13.5-6.5c2.6-1.3,5-2.5,5.4-5.9
		c0.2-2,2.1-4.4,3.8-2.3c2.6,3.3,4.3,0.9,6.1-0.1c23.9-13.3,46.9-28,69-44c6.9-5,6.9-5,3.5-12.4c-3.6-7.6-3.5-15.8-3.6-24.6
		c-25.6,14.3-50.9,27.6-78.9,34.6c0,2,3.3,3.5,0.7,5.6c-1.5,1.2-3.3,0.7-4.1-0.7c-2.7-5.1-6.8-2.8-10.5-2.2c-4.9,0.8-9.3,3.3-14,4.7
		c1.9-3.2,5.1-4.1,7.9-5.6c4.7-2.5,12-1.2,14.2-5.9c2.2-4.7,1.2-10.9,1.4-16.5c0.2-4.5,1.9-9.3-3-12.1c8.4-3.6,3.4-12.5,7.8-17.8
		c2,2.8,2.3,5.9,2.4,9.1c0,10.6,0.1,21.2-0.1,31.7c-0.1,3.4,0.3,4.4,4.1,3.1c11.1-3.9,21.7-8.8,32.4-13.5
		c16.6-7.3,30.8-19.6,49.2-22.7c-3.7,10-1.4,19.8,1.1,29.6c1.4,5.4,4.8,7.5,10.2,6.2c5.6-1.4,11.1-2.9,16.7-4.5c2.1-0.6,4-1.7,5-3.7
		c2.8-5.7,7.7-7.3,13.5-8.3c5.3-0.9,11.2-1.5,14-7.5c0.1-0.3,0.2-0.6,0.4-0.8C364.7,462.4,364.5,462.5,364.3,462.6z M366.7,253.7
		c-0.3-11.6-3.1-22.8-6.5-33.8c-0.8-2.6-2.2-4.3-5.1-4.3c-7-1.3-13.9-1.3-20.9,0c-22.7,1.3-42.9,9.2-61.1,22.9
		c-7.9,5.9-13.1,12.1-8.7,22.5c0.8,1.8,1.3,4.2-0.8,5.8c-2.2,1.7-4-0.2-5.7-1.2c-2.3-1.3-4.4-3-7.5-2.3c-6.8,1.4-11.1,9.1-9.7,17.3
		c1.5,8.3,6.8,12.5,14.5,10.8c2.2-0.5,3.6-0.4,4.9,1.4c7.2,10,14.6,19.8,25.1,26.7c1.1,0.7,2,1.9,1,3.4c-0.9,1.4-2.2,1.4-3.6,0.9
		c-1.2-0.4-2.1-1.7-3.8-1.2c-2.5,12-9.8,19.4-21.6,23c-6.4,1.9-12.6,4.5-18.9,6.8c9.8,27.2,28.6,42.7,52.9,43.5
		c4.7,1.3,9.3,1.1,13.9,0c12.2-0.8,23.3-4.6,33-12.1c8.3-6.4,12.7-15.2,14.6-25.3c0.5-2.8-0.1-4.1-2.8-5.1c-4.9-1.9-10.9-4-12.2-8.9
		c-2.2-8.3-7-8.7-13.5-7.4c-1.1,0.2-2.3,0.1-3.5-0.1c-7.8-1.2-14.3-4.5-19.2-12.4c1.6,0.5,2.1,0.5,2.5,0.8
		c15.6,12.8,37.2,9.4,50.2-8.9c8.1-11.4,11.6-24.5,12.3-38.3C368.3,269.9,368.2,261.8,366.7,253.7z M352.1,435.2
		c1.6,2,3.2,1.3,4.8,1.2c10.4-0.3,21-1.7,31,1.3c4.7,1.4,5.6,0.3,7.1-3.2c7.4-16.2,14.9-32.4,22.6-48.4c1.8-3.6,0.1-3.9-2.5-4.1
		c-12.1-0.7-24.2-1.4-36.3-2.1c-3.6-0.2-6.1,1.2-7.8,4.6c-5.6,11.7-11.4,23.3-17.3,35.5c8.9,0,5.1-10.5,11.2-12.1
		c1.3,2.2-0.5,3.6-1.3,5.3c-0.9,1.8-2.5,3.3-2.5,5.5c2.3,0,4.4-0.1,6.5,0c6,0.2,10.5,3,10.4,7c-0.2,5.8-4.7,7-9.2,7.7
		C363.4,434.4,357.8,434.7,352.1,435.2z M364.9,451.3c5.4,0,10.9-0.9,16,0.2c6.4,1.4,6.9-2.6,9.2-7.5
		C381.3,447.8,373.1,448.8,364.9,451.3z M244.1,197.8c0.3,0.6,0.6,1.2,0.9,1.8c3.9-1.8,7.7-3.7,11.6-5.5c-0.3-0.6-0.6-1.1-0.9-1.7
		C251.7,194.2,247.9,196,244.1,197.8z"/>
	<path class="st1" d="M197.2,572.3c0.2-0.5,0.6-1.2,0.5-1.6c-1.9-8.2,2.8-11.3,9.6-14.3c11-4.9,21.5-11.1,32.2-16.8
		c1.9-1,3.4-2.3,5.4,0.1c1.6,1.9,4.2,4.8,6.5,1.4c2.2-3.2-1.8-4.3-3.9-6.2c19.7-11.9,37.8-26,56.8-38.5c6.1-4,14.5-7.3,22.8-8.3
		c6.2-0.8,11.8-3.3,15-9.4c1.3-2.5,3.9-2.9,6.3-3.5c5.7-1.5,11.8-2.6,15.8-7.6c1.7-2,3.5-0.8,5.3-0.5c11.9,1.6,13,1.2,19-9.2
		c6.6-11.4,12-23.5,17.9-35.3c-0.4,50.9,12,100.5,13.7,151.1c-5,2.3-10.5,2-15.8,2.1c-32.2,0.9-64.3,1.8-96.5,1.1
		c-28.7-0.6-57.4-1.2-86.1-2.4C213.6,574,205.3,574.2,197.2,572.3z M388.4,479.5c-0.7,0-1.3,0.1-2,0.1c-0.8,30.7-0.3,61.3,4.6,92.2
		c3-1.2,2.9-2.8,2.8-4c-0.5-3.8,0.9-5.3,4.7-4.5c0.6,0.1,1.2,0,1.7,0c1.9-0.1,3.7-0.7,3.5-2.9c-0.2-2.5-2.2-2.8-4.3-2.4
		c-1.9,0.4-3.7,0.9-5.9,1.4c-0.5-5.9-0.9-11.6-1.4-17.3c-0.2-2.4,0.3-3.6,3.1-3.1c2.2,0.4,5.3,1.3,5.1-2.3c-0.2-3.9-3.7-2.9-5.8-2.2
		c-2.6,0.9-3-0.1-3.2-2.2c-0.2-2.7-0.3-5.4-0.4-8.1C390.1,509.3,389.3,494.4,388.4,479.5z M305.3,532.1c-0.2-0.5-0.4-1.1-0.6-1.6
		c-4.7,2.1-9.5,4-14.1,6.4c-2.5,1.3-4.2,3.7-2.2,6.6c2.3,3.1,5.1,2.1,7.3-0.2C299.1,539.7,302.2,535.8,305.3,532.1z M336.8,559.5
		c1.8,0.2,3-0.4,3.7-1.7c1.1-1.7,0-3.1-1.2-3.9c-3.5-2.4-7.7-3.2-11.7-4.1c-1-0.2-2.1,0.1-2.3,1.1c-0.2,0.6,0.3,1.5,0.7,2
		C329.2,555.9,333,557.9,336.8,559.5z M379.4,525.1c-0.2-1.4-1.2-2.1-2-1.9c-4.5,0.9-9,2.1-12,5.9c-1.3,1.6-0.4,3.3,1.2,4.3
		c2.3,1.4,4-0.2,5.7-1.4C375.2,530.1,378,528.2,379.4,525.1z M407.9,503c1.3,0.1,2.2-0.6,2.9-1.6c1-1.4,0.2-2.7-0.5-3.7
		c-2.2-3-5.1-5.1-8.4-6.8c-1.5-0.8-2.6-0.6-3,1.2C398.2,495.2,404.7,502.9,407.9,503z M380.5,564.2c-0.5-1.8-0.2-5.2-2.8-4.6
		c-3.7,0.8-4.7,4.7-5.3,8.1c-0.4,2.5,1,4.6,3.3,4.3C380,571.3,379.8,567.4,380.5,564.2z M327.6,495c1.3,5.1,4.3,8,8.1,10.1
		c1.4,0.7,3.1,0.8,4.1-0.9c0.8-1.3,0.5-2.7-0.6-3.6C335.9,498.1,332.7,495.3,327.6,495z M227.8,558.8c-1.9,0-2.8,1.1-2.4,2.5
		c1,3.5,3.2,6,7,6.5c2.2,0.3,3.7-1.2,3.5-3.4C235.4,559.4,230.4,560.8,227.8,558.8z M375,477.3c-0.3-1.3,0.3-3-1.8-3.2
		c-2.1-0.2-6.7,5.5-6.4,8c0.2,1.9,1.6,3.6,3.4,3.2C374.4,484.4,374.2,480.5,375,477.3z"/>
	<path class="st2" d="M157.3,467.3c-0.2-9.1,2.1-17.9,3.4-26.8c0.5-3.2,3-3,5-3.9c2.3-1.1,7.3-0.4,5.9-4.4c-1.4-4.2-4.7-0.6-7.2,0.2
		c-0.3,0.1-0.7,0-1,0c4.7-38.2,43.3-84,72.5-86c-3,16.4,6.7,27.4,16.4,38.6c-1,0.6-2.1,1.1-2.9,1.8c-1.7,1.6-2.6,3.5-0.7,5.5
		c1.8,1.8,4.3,1.9,5.5-0.1c2.5-4.4,4.7-2.2,7.5-0.6c25.5,14.5,51.2,13.7,76.2-0.9c13.3-7.8,20.3-20.6,23-36.2
		c10.1,9,24.3,11.1,33,22.4c-5.2,0-10,0.2-14.6-0.1c-5.3-0.4-8.9,1.6-11.2,6.3c-2.9,6-6,12-8.8,18.1c-1.2,2.6-2.2,4.2-5.3,2.5
		c-1.3-0.7-3.2-1.3-4.1,0.5c-0.7,1.4,0.8,2.4,1.6,3.3c4.7,5.7,2.7,12.2-4.4,14.1c-4.8,1.3-9.6,2.6-14.4,4.2c-2.3,0.8-3.1,0.3-3.8-2
		c-1.2-3.7-3.1-7.3-5.2-12.1c-3.2,5.4-2.1,10-0.4,13.5c1.5,3.2,0.3,3.6-1.7,5.1c-7.4,5.6-13.2,12.7-17.6,20.9l0,0
		c-18.5,3.2-32.7,15.5-49.2,22.7c-10.7,4.7-21.4,9.6-32.4,13.5c-3.7,1.3-4.1,0.3-4.1-3.1c0.2-10.6,0.1-21.1,0.1-31.7
		c0-3.2-0.4-6.3-2.4-9.1c-4.4,5.2,0.6,14.1-7.8,17.8c4.9,2.8,3.2,7.7,3,12.1c-0.2,5.6,0.8,11.8-1.4,16.5c-2.2,4.7-9.5,3.4-14.2,5.9
		c-2.8,1.5-6,2.4-7.9,5.6c4.8-1.4,9.1-3.9,14-4.7c3.7-0.6,7.8-2.9,10.5,2.2c0.7,1.4,2.6,1.9,4.1,0.7c2.6-2-0.7-3.6-0.7-5.6
		c28-6.9,53.3-20.3,78.9-34.6c0.1,8.8,0,17,3.6,24.6c3.5,7.4,3.4,7.4-3.5,12.4c-22.1,16-45.2,30.7-69,44c-1.8,1-3.5,3.5-6.1,0.1
		c-1.7-2.1-3.6,0.3-3.8,2.3c-0.4,3.4-2.8,4.7-5.4,5.9c-4.5,2.2-8.9,4.6-13.5,6.5c-11,4.4-19.6,1.7-25.8-8.4
		c-6.7-11-9-23.6-11.7-35.9c-0.3-1.5-0.5-3-0.9-4.5c-0.7-2.8-0.7-4.7,3.2-4.8c1.9,0,4.9-0.4,4.4-3.3c-0.6-3.5-3.4-2-5.5-1.7
		c-6.9,1.2-2.2-4.2-3.5-6.2C159,482.7,159,475,157.3,467.3z M253.6,417.2c-7.3-0.1-12.4,2.4-17.4,5c-1.8,1-2,2.7-0.9,4.4
		c1.2,1.9,3,2.5,5,1.4C245,425.4,249.7,422.9,253.6,417.2z M186.9,402.1c2.9,4.8,6.8,7,11.3,8.2c2.7,0.7,4.5-0.5,5.3-3
		c0.9-2.8-0.6-4.4-3.2-5.1C196.2,401.2,191.9,400.4,186.9,402.1z M198.8,518c-4.7,2.7-7.7,6.1-10.9,9.2c-1.8,1.7-2.4,4-0.1,6
		c2.6,2.3,4.6,0.9,6.3-1.3C196.9,528,197.9,523.5,198.8,518z M232.4,368.4c-0.2-1.7,0.6-4.4-1.9-5.2c-2.4-0.7-3.6,1.8-4.7,3.5
		c-1.9,2.7-3.6,5.6-1.5,9c0.9,1.5,2.4,2.1,4,1.3C231.6,375.2,232.4,372.2,232.4,368.4z M176,460.4c3.3,6.1,8,8.4,12.9,10.5
		c2,0.8,3.8,0.3,4.7-1.9c0.9-2.3-0.4-3.7-2.4-4.3C186.5,463.3,182.1,461.1,176,460.4z M233.8,475.3c4,0.2,6.7-1.6,6.8-4.3
		c0.1-3-1.5-4.6-4.5-4.8c-3.3-0.3-8.9,3.3-8.4,5.6C228.5,475.1,231.9,474.4,233.8,475.3z M245.9,496.4c1.1,5.5,4.4,8.1,8.4,10.1
		c1.7,0.8,3.5,0.4,4.4-1.5c0.9-1.9,0-3.4-1.8-4.2C253.5,499.4,250,498.1,245.9,496.4z M287.3,413.5c3.9,3.6,8.2,4,11.8,5.5
		c1.9,0.8,3.4,0.4,3.9-1.8c0.5-2.1-0.6-3.5-2.6-3.6C296.4,413.4,292.3,413.5,287.3,413.5z M267.8,449.2c1.1,4.9,2.3,7.9,5.1,10.2
		c1.1,0.9,2.2,1.6,3.5,0.3c1.3-1.2,0.8-2.5-0.1-3.5C274.3,453.7,272.1,451.4,267.8,449.2z M360.1,368.6c3.3,1.9,5,5.2,8.8,4.4
		c0.9-0.2,1.5-1.4,0.9-2.3C367.5,367.6,364.6,366.8,360.1,368.6z"/>
	<path class="st3" d="M355.1,215.6c2.9,0,4.3,1.7,5.1,4.3c3.4,11,6.2,22.2,6.5,33.8c-2,8.1-2,16.2,0,24.3
		c-0.6,13.9-4.1,26.9-12.3,38.3c-13,18.3-34.6,21.7-50.2,8.9c-0.3-0.3-0.9-0.3-2.5-0.8c4.9,7.9,11.4,11.2,19.2,12.4
		c1.1,0.2,2.3,0.3,3.5,0.1c6.6-1.3,11.4-0.9,13.5,7.4c1.3,4.9,7.3,7.1,12.2,8.9c2.7,1,3.3,2.4,2.8,5.1c-1.9,10.2-6.4,18.9-14.6,25.3
		c-9.7,7.5-20.8,11.4-33,12.1c-4.7-1.9-9.3-1.9-13.9,0c-24.3-0.9-43.1-16.3-52.9-43.5c6.3-2.3,12.5-4.9,18.9-6.8
		c11.8-3.5,19.1-11,21.6-23c1.7-0.4,2.6,0.8,3.8,1.2c1.4,0.5,2.6,0.5,3.6-0.9c1-1.5,0.1-2.7-1-3.4c-10.5-6.9-17.9-16.7-25.1-26.7
		c-1.3-1.8-2.7-1.8-4.9-1.4c-7.7,1.7-13-2.5-14.5-10.8c-1.4-8.2,2.9-16,9.7-17.3c3-0.6,5.1,1,7.5,2.3c1.7,1,3.5,2.9,5.7,1.2
		c2.1-1.6,1.6-4.1,0.8-5.8c-4.4-10.4,0.8-16.6,8.7-22.5c18.2-13.6,38.4-21.5,61.1-22.9C341.2,217.5,348.1,217.6,355.1,215.6z
		 M334.5,305.8c4.8-0.2,9-2.4,11.4-7.4c0.6-1.2,1.2-2.6-0.3-3.6c-1.3-0.9-2,0.5-2.8,1.2c-7.2,5.5-8,5.6-15.3,0.1
		c-1.6-1.2-3-1.6-4.6-0.3c-1.9,1.7-1.1,3.4,0.3,5C326.1,303.8,329.6,305.7,334.5,305.8z M346.8,275.6c-0.2-1.9-0.6-3.6-1.8-4.9
		c-1.8-2.1-4.4-4.8-6.6-2.9c-2.2,1.8,1.8,2.9,2.7,4.4c1.3,2.1,2.1,4.2,0.5,6.4c-1.6,2.2-3.9,2.1-6.2,0.8c-1.5-0.8-3-1.8-4.4-2.7
		c-1.1-0.7-2.1-0.7-3.1,0.2c-0.9,0.9-1,2-0.5,3.1c1.3,2.6,9,5.4,12.5,4.3C344.4,283.1,346.4,279.8,346.8,275.6z M294.9,248.2
		c6.1-3,12.1-6,19-5.8c1.9,0.1,4.2-0.3,4.1-2.8c-0.1-2.7-2.4-3.3-4.7-3.1C305.3,237.4,298.9,240.8,294.9,248.2z M362.1,246.3
		c-2.4-6.2-12.2-12-17.3-11c-1.3,0.2-2.2,0.8-2.5,2c-0.4,1.5,0.1,3,1.6,3.3C350,241.5,355.7,244,362.1,246.3z M305,257.5
		c0.3,2.3-0.8,6.4,2.9,6.2c4-0.2,4-4.5,4.3-7.7c0.2-2.4,0.6-5.7-3.1-5.6C304.7,250.5,305.4,254.4,305,257.5z M356.2,255.8
		c-0.2-2.9-1.2-5.5-4.2-5.2c-3,0.3-4.2,3-4.1,6c0.1,2.8,0.7,6.1,3.9,6C355.8,262.4,355.4,258.4,356.2,255.8z M261.4,279.1
		c1.6-0.5,1.5-1.8,1.3-2.8c-0.7-3-9.3-7.2-12.2-6c-0.8,0.3-1.9,0.7-1.7,2c0.2,1.1,1.2,1.6,2.1,1.7c3.6,0.4,6.7,1.6,9.2,4.3
		C260.3,278.7,260.9,278.9,261.4,279.1z"/>
	<path class="st4" d="M304.1,451.2c0.8,1.4,1.6,0.5,2.2-0.1c1.7-1.5,3.6-3,5-4.8c13.7-18.1,34.1-20.6,54.4-23.1
		c2.9-0.4,7.8-1.3,7.9,3.1c0.2,4-4.6,3.4-7.4,3.6c-8.8,0.5-17,3.2-25.1,6.1c-1.7,0.6-3.5,1.2-5.3,3.7c17.3-0.2,33.7-1.1,50.7,0.6
		c-4.8,3.6-10.2,5-22.7,6.2c-5.2,0.5-10.3,1.2-15.3,2.8c-1.7,0.6-5,0.4-4.5,3.3c0.5,2.4,3.2,1.3,5,1.3c10.4,0.2,20.8,0.2,31.2,0.4
		c1,0,2.3-0.4,3.5,1.2c-9.7,3.2-19.6,3.9-29.4,4.8c-2.3,0.2-4.6,0.1-6.9,0.3c-1.2,0.1-3.1-0.2-2.8,1.8c0.2,1.5,1.7,1.3,2.8,1.2
		c5.6-0.3,11.1-0.6,16.7-0.9l0.4,0.4c-2.8,6-8.7,6.6-14,7.5c-5.8,1-10.8,2.5-13.5,8.3c-0.9,1.9-2.9,3.1-5,3.7
		c-5.5,1.6-11.1,3.1-16.7,4.5c-5.4,1.3-8.8-0.8-10.2-6.2C302.8,470.9,300.5,461.1,304.1,451.2C304.1,451.1,304.1,451.2,304.1,451.2z
		"/>
	<path class="st5" d="M352.1,435.2c5.7-0.5,11.3-0.8,16.8-1.6c4.5-0.7,9-1.9,9.2-7.7c0.1-4-4.3-6.8-10.4-7c-2.1-0.1-4.2,0-6.5,0
		c0-2.3,1.6-3.7,2.5-5.5c0.8-1.6,2.5-3.1,1.3-5.3c-6.1,1.6-2.4,12.1-11.2,12.1c6-12.2,11.8-23.8,17.3-35.5c1.6-3.4,4.2-4.9,7.8-4.6
		c12.1,0.7,24.2,1.4,36.3,2.1c2.6,0.2,4.3,0.4,2.5,4.1c-7.8,16-15.2,32.2-22.6,48.4c-1.6,3.5-2.4,4.6-7.1,3.2c-10-3-20.6-1.6-31-1.3
		C355.3,436.5,353.7,437.2,352.1,435.2z M382.7,388.3c0-1.2-0.5-2.3-1.6-2.8c-1.1-0.5-2.5-0.5-3.1,0.5c-2,3.2-4.6,6.2-5.3,10
		c-0.3,1.8,0.5,3.5,2.3,4.2c1.8,0.7,2.8-0.7,3.7-1.9C380.8,395.3,381.8,391.9,382.7,388.3z"/>
	<path class="st6" d="M364.9,451.3c8.2-2.5,16.4-3.5,25.2-7.3c-2.3,4.9-2.8,8.9-9.2,7.5C375.8,450.4,370.2,451.3,364.9,451.3z"/>
	<path class="st7" d="M366.8,278c-2-8.1-2-16.2,0-24.3C368.2,261.8,368.3,269.9,366.8,278z"/>
	<path class="st8" d="M157.3,467.3c1.8,7.7,1.8,15.4,0,23.1C156.2,482.7,156.1,475,157.3,467.3z"/>
	<path class="st7" d="M355.1,215.6c-7,2-13.9,2-20.9,0C341.2,214.3,348.1,214.2,355.1,215.6z"/>
	<path class="st7" d="M291.4,395.9c4.6-2,9.3-1.9,13.9,0C300.7,397,296,397.2,291.4,395.9z"/>
	<path class="st7" d="M244.1,197.8c3.8-1.8,7.7-3.6,11.5-5.4c0.3,0.6,0.6,1.1,0.9,1.7c-3.9,1.8-7.7,3.7-11.6,5.5
		C244.6,199,244.3,198.4,244.1,197.8z"/>
	<path class="st4" d="M364.3,462.6c0.2-0.1,0.5-0.3,0.7-0.4c-0.1,0.3-0.2,0.6-0.4,0.8C364.6,463.1,364.3,462.6,364.3,462.6z"/>
	<path class="st9" d="M388.4,479.5c0.8,14.9,1.7,29.8,2.5,44.7c0.1,2.7,0.3,5.4,0.4,8.1c0.1,2,0.5,3,3.2,2.2
		c2.1-0.7,5.6-1.7,5.8,2.2c0.1,3.6-2.9,2.8-5.1,2.3c-2.8-0.6-3.3,0.6-3.1,3.1c0.5,5.7,1,11.4,1.4,17.3c2.2-0.5,4-1,5.9-1.4
		c2.1-0.4,4.1-0.1,4.3,2.4c0.2,2.2-1.6,2.8-3.5,2.9c-0.6,0-1.2,0.1-1.7,0c-3.8-0.8-5.2,0.8-4.7,4.5c0.1,1.2,0.2,2.7-2.8,4
		c-4.8-30.9-5.4-61.5-4.6-92.2C387.1,479.6,387.8,479.5,388.4,479.5z"/>
	<path class="st10" d="M305.3,532.1c-3.2,3.7-6.2,7.6-9.6,11.1c-2.2,2.3-5,3.4-7.3,0.2c-2.1-2.8-0.4-5.3,2.2-6.6
		c4.6-2.4,9.4-4.3,14.1-6.4C305,531,305.2,531.6,305.3,532.1z"/>
	<path class="st11" d="M336.8,559.5c-3.8-1.5-7.6-3.6-10.8-6.6c-0.5-0.4-0.9-1.4-0.7-2c0.3-1,1.4-1.3,2.3-1.1
		c4.1,0.9,8.2,1.7,11.7,4.1c1.2,0.9,2.3,2.2,1.2,3.9C339.7,559,338.6,559.6,336.8,559.5z"/>
	<path class="st10" d="M379.4,525.1c-1.4,3.1-4.2,5.1-7,7c-1.7,1.1-3.4,2.8-5.7,1.4c-1.7-1-2.5-2.7-1.2-4.3c3-3.9,7.5-5.1,12-5.9
		C378.2,523,379.2,523.6,379.4,525.1z"/>
	<path class="st10" d="M407.9,503c-3.2-0.1-9.7-7.9-9-10.9c0.4-1.8,1.5-2,3-1.2c3.3,1.7,6.2,3.8,8.4,6.8c0.7,1,1.4,2.3,0.5,3.7
		C410.1,502.5,409.2,503.1,407.9,503z"/>
	<path class="st12" d="M380.5,564.2c-0.8,3.2-0.6,7.2-4.7,7.8c-2.4,0.3-3.7-1.8-3.3-4.3c0.6-3.5,1.6-7.3,5.3-8.1
		C380.4,559,380,562.4,380.5,564.2z"/>
	<path class="st9" d="M327.6,495c5.1,0.3,8.3,3.1,11.5,5.6c1.2,0.9,1.4,2.3,0.6,3.6c-1,1.6-2.7,1.6-4.1,0.9
		C331.9,503.1,328.9,500.1,327.6,495z"/>
	<path class="st9" d="M227.8,558.8c2.6,2,7.6,0.6,8.1,5.5c0.2,2.2-1.3,3.7-3.5,3.4c-3.8-0.4-6-3-7-6.5
		C225,559.9,225.9,558.8,227.8,558.8z"/>
	<path class="st9" d="M375,477.3c-0.7,3.1-0.5,7.1-4.8,8c-1.8,0.4-3.1-1.3-3.4-3.2c-0.3-2.5,4.3-8.2,6.4-8
		C375.3,474.3,374.7,476,375,477.3z"/>
	<path class="st10" d="M253.6,417.2c-3.9,5.7-8.7,8.2-13.3,10.8c-1.9,1.1-3.7,0.5-5-1.4c-1.1-1.7-1-3.5,0.9-4.4
		C241.3,419.6,246.4,417.1,253.6,417.2z"/>
	<path class="st0" d="M186.9,402.1c4.9-1.6,9.2-0.9,13.5,0.1c2.6,0.6,4,2.3,3.2,5.1c-0.8,2.5-2.6,3.7-5.3,3
		C193.7,409.1,189.9,406.8,186.9,402.1z"/>
	<path class="st10" d="M198.8,518c-0.8,5.5-1.8,10.1-4.8,13.9c-1.6,2.1-3.7,3.6-6.3,1.3c-2.3-2-1.7-4.3,0.1-6
		C191,524,194.1,520.6,198.8,518z"/>
	<path class="st9" d="M232.4,368.4c0.1,3.8-0.8,6.8-4.1,8.5c-1.6,0.8-3.1,0.2-4-1.3c-2.1-3.4-0.5-6.3,1.5-9c1.2-1.6,2.3-4.2,4.7-3.5
		C232.9,364,232.2,366.7,232.4,368.4z"/>
	<path class="st11" d="M176,460.4c6,0.7,10.5,2.9,15.2,4.3c2,0.6,3.3,2,2.4,4.3c-0.9,2.2-2.7,2.7-4.7,1.9
		C184.1,468.8,179.3,466.5,176,460.4z"/>
	<path class="st10" d="M233.8,475.3c-1.9-0.9-5.3-0.2-6-3.6c-0.5-2.3,5.1-5.9,8.4-5.6c3,0.3,4.5,1.9,4.5,4.8
		C240.5,473.7,237.8,475.5,233.8,475.3z"/>
	<path class="st9" d="M245.9,496.4c4.1,1.6,7.6,2.9,11,4.4c1.8,0.8,2.7,2.3,1.8,4.2c-0.9,1.9-2.7,2.3-4.4,1.5
		C250.4,504.5,247.1,501.9,245.9,496.4z"/>
	<path class="st11" d="M287.3,413.5c5.1,0,9.2-0.2,13.2,0.1c1.9,0.1,3.1,1.5,2.6,3.6c-0.5,2.2-2.1,2.6-3.9,1.8
		C295.4,417.5,291.2,417.2,287.3,413.5z"/>
	<path class="st11" d="M267.8,449.2c4.3,2.2,6.4,4.6,8.5,6.9c0.9,1,1.4,2.3,0.1,3.5c-1.3,1.3-2.4,0.5-3.5-0.3
		C270.1,457.1,268.9,454.1,267.8,449.2z"/>
	<path class="st11" d="M360.1,368.6c4.6-1.8,7.5-1,9.6,2c0.7,1,0,2.1-0.9,2.3C365,373.8,363.3,370.5,360.1,368.6z"/>
	<path class="st12" d="M334.5,305.8c-4.9-0.1-8.4-2-11.2-5c-1.5-1.5-2.2-3.3-0.3-5c1.5-1.4,2.9-1,4.6,0.3c7.3,5.5,8.1,5.5,15.3-0.1
		c0.8-0.6,1.5-2.1,2.8-1.2c1.5,1,0.8,2.4,0.3,3.6C343.4,303.4,339.3,305.6,334.5,305.8z"/>
	<path class="st12" d="M346.8,275.6c-0.4,4.2-2.4,7.5-6.8,8.8c-3.4,1-11.1-1.7-12.5-4.3c-0.6-1.2-0.5-2.2,0.5-3.1c1-1,2-1,3.1-0.2
		c1.4,1,2.9,1.9,4.4,2.7c2.2,1.2,4.5,1.4,6.2-0.8c1.6-2.1,0.8-4.2-0.5-6.4c-0.9-1.6-4.9-2.6-2.7-4.4c2.2-1.9,4.9,0.8,6.6,2.9
		C346.2,272,346.6,273.7,346.8,275.6z"/>
	<path class="st12" d="M294.9,248.2c4.1-7.3,10.5-10.8,18.5-11.6c2.2-0.2,4.5,0.4,4.7,3.1c0.1,2.6-2.1,2.9-4.1,2.8
		C306.9,242.2,300.9,245.2,294.9,248.2z"/>
	<path class="st10" d="M362.1,246.3c-6.4-2.3-12.1-4.8-18.3-5.8c-1.4-0.2-1.9-1.8-1.6-3.3c0.3-1.2,1.2-1.8,2.5-2
		C349.9,234.3,359.7,240.2,362.1,246.3z"/>
	<path class="st0" d="M305,257.5c0.4-3.1-0.3-7,4.1-7.1c3.7-0.1,3.3,3.2,3.1,5.6c-0.3,3.2-0.3,7.5-4.3,7.7
		C304.2,263.9,305.3,259.9,305,257.5z"/>
	<path class="st12" d="M356.2,255.8c-0.8,2.6-0.4,6.7-4.4,6.8c-3.2,0.1-3.8-3.2-3.9-6c-0.1-3,1.1-5.6,4.1-6
		C355,250.2,355.9,252.9,356.2,255.8z"/>
	<path class="st11" d="M261.4,279.1c-0.5-0.2-1.1-0.4-1.4-0.8c-2.5-2.7-5.6-3.9-9.2-4.3c-0.9-0.1-1.9-0.6-2.1-1.7
		c-0.2-1.3,0.9-1.6,1.7-2c2.9-1.2,11.6,3,12.2,6C262.8,277.3,263,278.6,261.4,279.1z"/>
	<path class="st0" d="M382.7,388.3c-0.8,3.6-1.9,7-4,10c-0.9,1.3-1.9,2.7-3.7,1.9c-1.8-0.7-2.6-2.4-2.3-4.2c0.6-3.9,3.3-6.8,5.3-10
		c0.7-1.1,2-1.1,3.1-0.5C382.1,386.1,382.6,387.1,382.7,388.3z"/>
</g>
</svg>
